<svg width="12" height="12" viewBox="0 0 12 12" fill="none" xmlns="http://www.w3.org/2000/svg">
<path d="M11.864 3.017C11.783 2.92001 11.6634 2.86367 11.537 2.863H9.22499V4.09C9.22499 4.653 8.74099 5.112 8.14499 5.112C7.55099 5.112 7.06699 4.654 7.06699 4.09V2.863H4.90899V4.09C4.90899 4.653 4.42399 5.112 3.82899 5.112C3.23399 5.112 2.75099 4.654 2.75099 4.09V2.863H0.43799C0.31166 2.86381 0.192075 2.92012 0.11099 3.017C0.0272391 3.11638 -0.0118313 3.24589 0.00298989 3.375L0.77899 10.509C0.79399 11.315 1.42099 11.964 2.18999 11.964H9.78499C10.555 11.964 11.181 11.315 11.196 10.509L11.972 3.375C11.9863 3.24593 11.9473 3.1166 11.864 3.017Z" fill="black"/>
<path d="M3.82901 4.499C4.06801 4.499 4.26201 4.315 4.26201 4.09V1.84C4.26201 1.208 4.93401 0.818 5.55701 0.818H6.63601C7.29101 0.818 7.71401 1.219 7.71401 1.84V4.09C7.71401 4.315 7.90801 4.499 8.14501 4.499C8.38401 4.499 8.57801 4.315 8.57801 4.09V1.84C8.57701 0.773 7.76101 0 6.63601 0H5.55701C4.36701 0 3.39801 0.826 3.39801 1.84V4.09C3.39801 4.315 3.59201 4.499 3.82901 4.499Z" fill="black"/>
</svg>
