<svg width="5" height="8" viewBox="0 0 5 8" fill="none" xmlns="http://www.w3.org/2000/svg">
<path d="M4.83002 4.132L1.86102 1.144C1.76702 1.04842 1.63858 0.994582 1.50452 0.994582C1.37046 0.994582 1.24202 1.04842 1.14802 1.144C0.949914 1.34234 0.949914 1.66366 1.14802 1.862L3.75902 4.491L1.14802 7.12C0.949684 7.31902 0.949684 7.64098 1.14802 7.84C1.24202 7.93558 1.37046 7.98942 1.50452 7.98942C1.63858 7.98942 1.76702 7.93558 1.86102 7.84L4.83002 4.852C4.92464 4.75612 4.97749 4.6267 4.97702 4.492C4.97781 4.35723 4.92492 4.22769 4.83002 4.132Z" fill="black"/>
</svg>
